#!OML:ASF E:\acrobat2\Project_11_07_03\Capture day 1\Session 1\Acrobat.ASF
:FULLY-SPECIFIED
:DEGREES
62
root 10.2535 16.6565 32.3299 -179.913 -1.34798 180.897
lowerback -5.96664 0.27035 0.0571437
upperback -3.0391 0.179067 -0.582787
thorax 0.221057 0.00684735 -0.619653
lowerneck 1.68206 -1.6734 -1.12579
upperneck 3.95771 -2.48724 3.44978
head 0.999081 -1.28485 1.24279
rclavicle -5.96354e-016 3.18055e-015
rhumerus -46.4735 16.325 -95.1455
rradius 27.6134
rwrist 5.11938
rhand -5.01171 -40.7505
rfingers 7.12502
rthumb 20.7822 -69.6576
lclavicle -5.96354e-016 3.18055e-015
lhumerus -39.8838 -22.794 96.7469
lradius 21.0753
lwrist 9.74784
lhand -4.07189 -13.4246
lfingers 7.12502
lthumb 21.6849 15.381
rfemur 16.0177 29.1853 1.02823
rtibia -6.51595
rfoot -48.9571 -28.6556
rtoes 23.41
lfemur 13.3591 -23.6609 4.13911
ltibia -7.67399
lfoot -44.8234 -9.19114
ltoes 56.9109
63
root 10.254 16.657 32.3311 -179.903 -1.33294 180.911
lowerback -5.96798 0.269988 0.0619757
upperback -3.03567 0.178613 -0.576191
thorax 0.225332 0.0067615 -0.615618
lowerneck 1.64144 -1.6653 -1.1357
upperneck 3.98585 -2.4784 3.47189
head 1.01505 -1.27996 1.25118
rclavicle 1.3418e-015 -8.74653e-015
rhumerus -46.4674 16.3435 -95.1574
rradius 27.5931
rwrist 5.09766
rhand -5.08736 -40.6639
rfingers 7.12502
rthumb 20.7095 -69.5789
lclavicle 1.3418e-015 -8.74653e-015
lhumerus -39.8765 -22.8297 96.7705
lradius 21.0735
lwrist 9.81011
lhand -4.11695 -13.4134
lfingers 7.12502
lthumb 21.6417 15.3972
rfemur 15.9895 29.2105 1.04153
rtibia -6.50193
rfoot -48.9457 -28.6836
rtoes 23.2996
lfemur 13.3619 -23.6994 4.1468
ltibia -7.68147
lfoot -44.8708 -9.12389
ltoes 56.913
64
root 10.2542 16.6574 32.3321 -179.899 -1.32311 180.905
lowerback -5.96449 0.26659 0.0478582
upperback -3.0277 0.175519 -0.573096
thorax 0.231477 0.00569847 -0.604708
lowerneck 1.61065 -1.6522 -1.16413
upperneck 3.99202 -2.46289 3.5204
head 1.02308 -1.27189 1.27126
rclavicle -9.44227e-016 -1.07344e-014
rhumerus -46.454 16.3681 -95.1603
rradius 27.5738
rwrist 5.06107
rhand -5.12515 -40.5836
rfingers 7.12502
rthumb 20.6732 -69.5026
lclavicle -9.44227e-016 -1.07344e-014
lhumerus -39.8576 -22.8284 96.7742
lradius 21.0701
lwrist 9.84108
lhand -4.13833 -13.4056
lfingers 7.12502
lthumb 21.6211 15.4073
rfemur 15.9673 29.2082 1.0246
rtibia -6.48965
rfoot -48.9175 -28.6926
rtoes 23.2731
lfemur 13.3687 -23.7276 4.12974
ltibia -7.68738
lfoot -44.9006 -9.07495
ltoes 56.9095
65
root 10.2542 16.6576 32.3329 -179.903 -1.3229 180.882
lowerback -5.95472 0.257538 0.0137626
upperback -3.01472 0.166414 -0.572594
thorax 0.239169 0.00201626 -0.58562
lowerneck 1.59309 -1.63772 -1.19732
upperneck 3.97075 -2.44433 3.57557
head 1.02039 -1.26235 1.29443
rclavicle 1.09332e-015 3.97569e-016
rhumerus -46.4206 16.3762 -95.1366
rradius 27.5346
rwrist 5.0422
rhand -5.13228 -40.4725
rfingers 7.12502
rthumb 20.6663 -69.3922
lclavicle 1.09332e-015 3.97569e-016
lhumerus -39.8264 -22.7877 96.7555
lradius 21.0646
lwrist 9.83508
lhand -4.14249 -13.4074
lfingers 7.12502
lthumb 21.6171 15.406
rfemur 15.9592 29.1858 0.985118
rtibia -6.48281
rfoot -48.8825 -28.6903
rtoes 23.3078
lfemur 13.3753 -23.7408 4.09442
ltibia -7.68978
lfoot -44.9171 -9.0392
ltoes 56.8829
66
root 10.254 16.6577 32.3338 -179.916 -1.32963 180.842
lowerback -5.93564 0.243542 -0.0380568
upperback -2.99669 0.152158 -0.575049
thorax 0.246784 -0.00386916 -0.559938
lowerneck 1.58821 -1.62743 -1.22232
upperneck 3.92238 -2.42912 3.61718
head 1.00681 -1.25445 1.31202
rclavicle 1.68967e-015 6.75868e-015
rhumerus -46.3712 16.3759 -95.1033
rradius 27.4849
rwrist 5.03991
rhand -5.12761 -40.3799
rfingers 7.12502
rthumb 20.6708 -69.2992
lclavicle 1.68967e-015 6.75868e-015
lhumerus -39.774 -22.6985 96.7033
lradius 21.0574
lwrist 9.81695
lhand -4.09072 -13.4043
lfingers 7.12502
lthumb 21.6668 15.4034
rfemur 15.9645 29.1472 0.92643
rtibia -6.48152
rfoot -48.8335 -28.6854
rtoes 23.3577
lfemur 13.3851 -23.7423 4.04055
ltibia -7.6885
lfoot -44.9289 -8.98536
ltoes 56.8231
67
root 10.2539 16.6578 32.3348 -179.934 -1.33822 180.8
lowerback -5.90716 0.227138 -0.0931012
upperback -2.97781 0.135025 -0.578129
thorax 0.250034 -0.011091 -0.533265
lowerneck 1.59235 -1.62411 -1.23324
upperneck 3.85722 -2.42121 3.63644
head 0.986041 -1.25013 1.32015
rclavicle -1.2921e-015 5.56597e-015
rhumerus -46.3151 16.3712 -95.0646
rradius 27.4251
rwrist 5.05285
rhand -5.11857 -40.2635
rfingers 7.12502
rthumb 20.6795 -69.1818
lclavicle -1.2921e-015 5.56597e-015
lhumerus -39.7372 -22.6285 96.6638
lradius 21.0584
lwrist 9.79432
lhand -4.07518 -13.4094
lfingers 7.12502
lthumb 21.6818 15.3965
rfemur 15.977 29.1077 0.868423
rtibia -6.48223
rfoot -48.7961 -28.6714
rtoes 23.4405
lfemur 13.3942 -23.7315 3.98694
ltibia -7.68014
lfoot -44.9268 -8.93112
ltoes 56.7582
68
root 10.2539 16.6579 32.3358 -179.95 -1.34171 180.769
lowerback -5.87481 0.2114 -0.138397
upperback -2.96 0.118218 -0.578753
thorax 0.250093 -0.0182356 -0.509514
lowerneck 1.58374 -1.62653 -1.22729
upperneck 3.80123 -2.42004 3.63023
head 0.969795 -1.24887 1.31717
rclavicle -7.45443e-016 1.39149e-014
rhumerus -46.2655 16.3846 -95.0436
rradius 27.3727
rwrist 5.06821
rhand -5.11634 -40.1782
rfingers 7.12502
rthumb 20.6816 -69.0962
lclavicle -7.45443e-016 1.39149e-014
lhumerus -39.7203 -22.6007 96.6483
lradius 21.0736
lwrist 9.80213
lhand -4.08565 -13.4122
lfingers 7.12502
lthumb 21.6717 15.3948
rfemur 15.9869 29.0823 0.827114
rtibia -6.48237
rfoot -48.7914 -28.6436
rtoes 23.5558
lfemur 13.3999 -23.7141 3.95017
ltibia -7.66533
lfoot -44.904 -8.91698
ltoes 56.7322
69
root 10.2543 16.658 32.3369 -179.965 -1.33238 180.758
lowerback -5.84152 0.200422 -0.163034
upperback -2.94278 0.106675 -0.57591
thorax 0.249141 -0.0229186 -0.493473
lowerneck 1.55241 -1.63099 -1.20957
upperneck 3.76709 -2.4218 3.60886
head 0.963856 -1.2487 1.30714
rclavicle 6.95746e-016 3.18055e-015
rhumerus -46.2228 16.4087 -95.0351
rradius 27.3279
rwrist 5.07969
rhand -5.11905 -40.0971
rfingers 7.12502
rthumb 20.679 -69.0154
lclavicle 6.95746e-016 3.18055e-015
lhumerus -39.7115 -22.6051 96.6499
lradius 21.087
lwrist 9.8186
lhand -4.1187 -13.4154
lfingers 7.12502
lthumb 21.64 15.3954
rfemur 15.9882 29.0785 0.812826
rtibia -6.47869
rfoot -48.8056 -28.614
rtoes 23.6403
lfemur 13.4068 -23.6838 3.94105
ltibia -7.6518
lfoot -44.8493 -8.96081
ltoes 56.7676
70
root 10.2549 16.6579 32.3381 -179.975 -1.3101 180.766
lowerback -5.81057 0.195043 -0.165871
upperback -2.93014 0.101086 -0.5716
thorax 0.244893 -0.0249873 -0.487797
lowerneck 1.51671 -1.63228 -1.19256
upperneck 3.74474 -2.42036 3.59369
head 0.962365 -1.24697 1.29918
rclavicle -9.93923e-017 -3.97569e-016
rhumerus -46.2108 16.4679 -95.0663
rradius 27.3171
rwrist 5.06848
rhand -5.1368 -40.0717
rfingers 7.12502
rthumb 20.662 -68.9919
lclavicle -9.93923e-017 -3.97569e-016
lhumerus -39.7009 -22.6094 96.6472
lradius 21.0879
lwrist 9.82452
lhand -4.14137 -13.4239
lfingers 7.12502
lthumb 21.6182 15.3893
rfemur 15.9737 29.0866 0.817286
rtibia -6.46853
rfoot -48.8125 -28.5933
rtoes 23.665
lfemur 13.4145 -23.644 3.95736
ltibia -7.64726
lfoot -44.7707 -9.08878
ltoes 56.8797
71
root 10.2555 16.6579 32.3394 -179.98 -1.27914 180.781
lowerback -5.78213 0.194191 -0.156683
upperback -2.92408 0.100342 -0.567595
thorax 0.235348 -0.0249978 -0.48889
lowerneck 1.48953 -1.62678 -1.19252
upperneck 3.73074 -2.41185 3.60361
head 0.962539 -1.24209 1.30218
rclavicle -1.14301e-015 -3.97569e-015
rhumerus -46.2263 16.5436 -95.1154
rradius 27.3318
rwrist 5.04018
rhand -5.15647 -40.0571
rfingers 7.12502
rthumb 20.6431 -68.9794
lclavicle -1.14301e-015 -3.97569e-015
lhumerus -39.6904 -22.599 96.6337
lradius 21.0841
lwrist 9.83544
lhand -4.11916 -13.4288
lfingers 7.12502
lthumb 21.6395 15.382
rfemur 15.9446 29.0915 0.822529
rtibia -6.45543
rfoot -48.7893 -28.5854
rtoes 23.6333
lfemur 13.4274 -23.6223 3.976
ltibia -7.65357
lfoot -44.705 -9.29215
ltoes 57.0598
72
root 10.256 16.6578 32.3405 -179.983 -1.24892 180.8
lowerback -5.7555 0.195889 -0.139521
upperback -2.92466 0.102031 -0.563896
thorax 0.220012 -0.0241123 -0.494627
lowerneck 1.47387 -1.61628 -1.21634
upperneck 3.72862 -2.39909 3.6413
head 0.965188 -1.2356 1.31818
rclavicle -3.67752e-015 2.38542e-015
rhumerus -46.2865 16.6605 -95.2078
rradius 27.4021
rwrist 4.97681
rhand -5.17767 -40.1685
rfingers 7.12502
rthumb 20.6227 -69.093
lclavicle -3.67752e-015 2.38542e-015
lhumerus -39.6816 -22.5714 96.6098
lradius 21.0848
lwrist 9.86885
lhand -4.03369 -13.4025
lfingers 7.12502
lthumb 21.7216 15.3989
rfemur 15.9154 29.0926 0.830159
rtibia -6.44686
rfoot -48.7413 -28.5948
rtoes 23.5433
lfemur 13.4433 -23.6264 3.99014
ltibia -7.6648
lfoot -44.668 -9.49829
ltoes 57.2628
73
root 10.2562 16.6579 32.3416 -179.978 -1.23064 180.815
lowerback -5.73788 0.196183 -0.121947
upperback -2.93185 0.101165 -0.562837
thorax 0.202888 -0.0248345 -0.50345
lowerneck 1.47707 -1.60489 -1.25353
upperneck 3.72685 -2.38629 3.69284
head 0.96518 -1.22957 1.34103
rclavicle -1.68967e-015 -1.98785e-015
rhumerus -46.3548 16.7605 -95.2873
rradius 27.4723
rwrist 4.91918
rhand -5.1851 -40.2666
rfingers 7.12502
rthumb 20.6156 -69.1918
lclavicle -1.68967e-015 -1.98785e-015
lhumerus -39.6929 -22.5609 96.6007
lradius 21.0895
lwrist 9.89423
lhand -3.9776 -13.3747
lfingers 7.12502
lthumb 21.7755 15.4204
rfemur 15.8914 29.0906 0.834017
rtibia -6.44814
rfoot -48.686 -28.6212
rtoes 23.4083
lfemur 13.4487 -23.6567 3.99694
ltibia -7.67284
lfoot -44.6785 -9.63966
ltoes 57.4261
